<?xml version="1.0" encoding="utf-8"?>
<!-- Generator: Adobe Illustrator 27.2.0, SVG Export Plug-In . SVG Version: 6.00 Build 0)  -->
<svg version="1.1" id="Capa_1" xmlns="http://www.w3.org/2000/svg" xmlns:xlink="http://www.w3.org/1999/xlink" x="0px" y="0px"
	 viewBox="0 0 90 90" style="enable-background:new 0 0 90 90;" xml:space="preserve">
<style type="text/css">
	.st0{opacity:0.924;fill-rule:evenodd;clip-rule:evenodd;enable-background:new    ;}
</style>
<g>
	<path class="st0" d="M26.5,8.5c12-0.3,24,0,36,1c0.5,1,1,2,1.5,3c1.6,6.9,1.9,13.9,1,21c-2.1,5.8-4.4,11.4-7,17
		c-0.2,2.5-0.3,5-0.5,7.5c1.2,7.4,1.9,14.9,2,22.5c-10,0-20,0-30,0c1.5-9.9,2-19.9,1.5-30c-2.6-5.6-4.9-11.2-7-17
		C22.8,24.9,23.6,16.6,26.5,8.5z M31.5,14.5c8.7,0,17.3,0,26,0c0.3,2,0.7,4,1,6c-7.7,0-15.3,0-23,0c-0.2,4.3,0,8.7,0.5,13
		c2.3,5.3,4.7,10.7,7,16c1.1,7.8,0.4,15.5-2,23c-1.3,1.3-2.7,1.3-4,0c3.6-14.1,1.6-27.5-6-40C30.3,26.5,30.5,20.5,31.5,14.5z"/>
</g>
</svg>
