<?xml version="1.0" encoding="UTF-8"?>
<!DOCTYPE svg PUBLIC "-//W3C//DTD SVG 1.1//EN" "http://www.w3.org/Graphics/SVG/1.1/DTD/svg11.dtd">
<svg xmlns="http://www.w3.org/2000/svg" version="1.1" width="90px" height="90px" style="shape-rendering:geometricPrecision; text-rendering:geometricPrecision; image-rendering:optimizeQuality; fill-rule:evenodd; clip-rule:evenodd" xmlns:xlink="http://www.w3.org/1999/xlink">
<g><path style="opacity:0.99" fill="#000000" d="M 7.5,11.5 C 32.1689,11.3334 56.8356,11.5 81.5,12C 82,12.5 82.5,13 83,13.5C 83.4999,25.1619 83.6665,36.8286 83.5,48.5C 81.5328,48.2606 79.6995,48.5939 78,49.5C 77.5004,42.8417 77.3337,36.175 77.5,29.5C 55.5,29.5 33.5,29.5 11.5,29.5C 11.5,43.5 11.5,57.5 11.5,71.5C 25.8372,71.3334 40.1705,71.5001 54.5,72C 52.8333,73.6667 51.1667,75.3333 49.5,77C 34.8371,77.4999 20.1705,77.6666 5.5,77.5C 5.33337,56.1641 5.50004,34.8307 6,13.5C 6.71719,12.9558 7.21719,12.2891 7.5,11.5 Z"/></g>
<g><path style="opacity:0.765" fill="#000000" d="M 20.5,38.5 C 22.5,38.5 24.5,38.5 26.5,38.5C 26.5,40.5 26.5,42.5 26.5,44.5C 24.5,44.5 22.5,44.5 20.5,44.5C 20.5,42.5 20.5,40.5 20.5,38.5 Z"/></g>
<g><path style="opacity:0.957" fill="#000000" d="M 32.5,38.5 C 43.5,38.5 54.5,38.5 65.5,38.5C 65.5,40.5 65.5,42.5 65.5,44.5C 54.5,44.5 43.5,44.5 32.5,44.5C 32.5,42.5 32.5,40.5 32.5,38.5 Z"/></g>
<g><path style="opacity:0.766" fill="#000000" d="M 20.5,50.5 C 22.5,50.5 24.5,50.5 26.5,50.5C 26.5,52.5 26.5,54.5 26.5,56.5C 24.5,56.5 22.5,56.5 20.5,56.5C 20.5,54.5 20.5,52.5 20.5,50.5 Z"/></g>
<g><path style="opacity:0.957" fill="#000000" d="M 32.5,50.5 C 43.5,50.5 54.5,50.5 65.5,50.5C 65.5,52.5 65.5,54.5 65.5,56.5C 54.5,56.5 43.5,56.5 32.5,56.5C 32.5,54.5 32.5,52.5 32.5,50.5 Z"/></g>
<g><path style="opacity:0.806" fill="#000000" d="M 89.5,58.5 C 89.5,60.1667 89.5,61.8333 89.5,63.5C 88.1851,64.4756 86.8518,65.4756 85.5,66.5C 82.1667,63.8333 79.1667,60.8333 76.5,57.5C 77.652,55.1751 79.4853,53.8417 82,53.5C 84.8858,54.5463 87.3858,56.2129 89.5,58.5 Z"/></g>
<g><path style="opacity:0.889" fill="#000000" d="M 72.5,60.5 C 76.4154,62.7433 79.7488,65.7433 82.5,69.5C 77.8485,74.6519 73.0151,79.6519 68,84.5C 66.7582,82.4593 64.9249,81.2927 62.5,81C 61.9115,78.4858 60.5781,76.4858 58.5,75C 63.3699,70.2979 68.0366,65.4646 72.5,60.5 Z"/></g>
<g><path style="opacity:0.133" fill="#000000" d="M 82.5,76.5 C 83.8333,77.1667 83.8333,77.1667 82.5,76.5 Z"/></g>
<g><path style="opacity:0.722" fill="#000000" d="M 57.5,89.5 C 56.1667,89.5 54.8333,89.5 53.5,89.5C 53.7192,80.9824 56.0526,80.3157 60.5,87.5C 59.3984,88.1757 58.3984,88.8423 57.5,89.5 Z"/></g>
</svg>
