<?xml version="1.0" encoding="UTF-8"?>
<!DOCTYPE svg PUBLIC "-//W3C//DTD SVG 1.1//EN" "http://www.w3.org/Graphics/SVG/1.1/DTD/svg11.dtd">
<svg xmlns="http://www.w3.org/2000/svg" version="1.1" width="90px" height="90px" style="shape-rendering:geometricPrecision; text-rendering:geometricPrecision; image-rendering:optimizeQuality; fill-rule:evenodd; clip-rule:evenodd" xmlns:xlink="http://www.w3.org/1999/xlink">
<g><path style="opacity:0.98" fill="#000000" d="M 41.5,5.5 C 43.5273,5.33788 45.5273,5.50454 47.5,6C 51.3333,9.16667 55.1667,12.3333 59,15.5C 59.4966,13.1902 59.6633,10.8568 59.5,8.5C 62.5,8.5 65.5,8.5 68.5,8.5C 68.3341,13.5111 68.5007,18.5111 69,23.5C 72.5931,26.3816 76.0931,29.3816 79.5,32.5C 80.4656,34.396 80.7989,36.396 80.5,38.5C 78.5,38.5 76.5,38.5 74.5,38.5C 74.6665,50.8378 74.4999,63.1712 74,75.5C 73.5,76 73,76.5 72.5,77C 53.8333,77.6667 35.1667,77.6667 16.5,77C 16,76.5 15.5,76 15,75.5C 14.5001,63.1712 14.3335,50.8378 14.5,38.5C 12.5,38.5 10.5,38.5 8.5,38.5C 8.2011,36.396 8.53443,34.396 9.5,32.5C 20.2377,23.4818 30.9044,14.4818 41.5,5.5 Z M 35.5,47.5 C 41.5,47.5 47.5,47.5 53.5,47.5C 53.5,55.5 53.5,63.5 53.5,71.5C 47.5,71.5 41.5,71.5 35.5,71.5C 35.5,63.5 35.5,55.5 35.5,47.5 Z"/></g>
</svg>
