<?xml version="1.0" encoding="UTF-8"?>
<!DOCTYPE svg PUBLIC "-//W3C//DTD SVG 1.1//EN" "http://www.w3.org/Graphics/SVG/1.1/DTD/svg11.dtd">
<svg xmlns="http://www.w3.org/2000/svg" version="1.1" width="90px" height="90px" style="shape-rendering:geometricPrecision; text-rendering:geometricPrecision; image-rendering:optimizeQuality; fill-rule:evenodd; clip-rule:evenodd" xmlns:xlink="http://www.w3.org/1999/xlink">
<g><path style="opacity:0.97" fill="#000000" d="M 14.5,5.5 C 16.484,6.15572 18.484,6.82239 20.5,7.5C 22.5,6.83333 24.5,6.16667 26.5,5.5C 28.5,6.16667 30.5,6.83333 32.5,7.5C 34.5,6.83333 36.5,6.16667 38.5,5.5C 40.5,6.16667 42.5,6.83333 44.5,7.5C 46.5,6.83333 48.5,6.16667 50.5,5.5C 52.5,6.16667 54.5,6.83333 56.5,7.5C 58.5,6.83333 60.5,6.16667 62.5,5.5C 66.1979,8.01414 69.8645,8.01414 73.5,5.5C 74.6665,30.8268 74.8332,56.1601 74,81.5C 73.5,82 73,82.5 72.5,83C 53.8333,83.6667 35.1667,83.6667 16.5,83C 16,82.5 15.5,82 15,81.5C 14.5,56.1689 14.3334,30.8355 14.5,5.5 Z M 29.5,20.5 C 39.5056,20.3335 49.5056,20.5002 59.5,21C 62.1667,22.6667 62.1667,24.3333 59.5,26C 49.5,26.6667 39.5,26.6667 29.5,26C 26.9824,24.1899 26.9824,22.3566 29.5,20.5 Z M 29.5,38.5 C 35.5092,38.3338 41.5092,38.5005 47.5,39C 50.1667,40.6667 50.1667,42.3333 47.5,44C 41.5,44.6667 35.5,44.6667 29.5,44C 26.9824,42.1899 26.9824,40.3566 29.5,38.5 Z M 57.5,39.5 C 58.8333,39.5 60.1667,39.5 61.5,39.5C 61.5,40.8333 61.5,42.1667 61.5,43.5C 60.1667,43.5 58.8333,43.5 57.5,43.5C 57.5,42.1667 57.5,40.8333 57.5,39.5 Z M 29.5,50.5 C 33.5138,50.3345 37.5138,50.5012 41.5,51C 44.1667,52.6667 44.1667,54.3333 41.5,56C 37.5,56.6667 33.5,56.6667 29.5,56C 26.9824,54.1899 26.9824,52.3566 29.5,50.5 Z M 57.5,51.5 C 58.8333,51.5 60.1667,51.5 61.5,51.5C 61.5,52.8333 61.5,54.1667 61.5,55.5C 60.1667,55.5 58.8333,55.5 57.5,55.5C 57.5,54.1667 57.5,52.8333 57.5,51.5 Z M 29.5,62.5 C 35.5092,62.3338 41.5092,62.5005 47.5,63C 50.1667,64.6667 50.1667,66.3333 47.5,68C 41.5,68.6667 35.5,68.6667 29.5,68C 26.9824,66.1899 26.9824,64.3566 29.5,62.5 Z M 57.5,63.5 C 58.8333,63.5 60.1667,63.5 61.5,63.5C 61.5,64.8333 61.5,66.1667 61.5,67.5C 60.1667,67.5 58.8333,67.5 57.5,67.5C 57.5,66.1667 57.5,64.8333 57.5,63.5 Z"/></g>
</svg>
