<?xml version="1.0" encoding="UTF-8"?>
<!DOCTYPE svg PUBLIC "-//W3C//DTD SVG 1.1//EN" "http://www.w3.org/Graphics/SVG/1.1/DTD/svg11.dtd">
<svg xmlns="http://www.w3.org/2000/svg" version="1.1" width="90px" height="90px" style="shape-rendering:geometricPrecision; text-rendering:geometricPrecision; image-rendering:optimizeQuality; fill-rule:evenodd; clip-rule:evenodd" xmlns:xlink="http://www.w3.org/1999/xlink">
<g><path style="opacity:0.929" fill="#000000" d="M 16.5,5.5 C 17.8333,5.5 19.1667,5.5 20.5,5.5C 20.3338,11.8421 20.5005,18.1754 21,24.5C 22.3946,25.8146 23.3946,25.4812 24,23.5C 24.5935,17.8247 25.2602,12.158 26,6.5C 27.3333,5.16667 28.6667,5.16667 30,6.5C 30.7398,12.158 31.4065,17.8247 32,23.5C 32.6054,25.4812 33.6054,25.8146 35,24.5C 35.4995,18.1754 35.6662,11.8421 35.5,5.5C 36.8333,5.5 38.1667,5.5 39.5,5.5C 41.2311,14.7626 41.7311,24.096 41,33.5C 39.6986,37.3011 37.1986,39.9678 33.5,41.5C 32.6673,55.1545 32.1673,68.8212 32,82.5C 29.3333,83.8333 26.6667,83.8333 24,82.5C 23.8327,68.8212 23.3327,55.1545 22.5,41.5C 18.8014,39.9678 16.3014,37.3011 15,33.5C 14.2689,24.096 14.7689,14.7626 16.5,5.5 Z"/></g>
<g><path style="opacity:0.96" fill="#000000" d="M 65.5,5.5 C 67.5,5.5 69.5,5.5 71.5,5.5C 71.6666,31.1688 71.5,56.8355 71,82.5C 68.3333,83.8333 65.6667,83.8333 63,82.5C 62.6667,72.1667 62.3333,61.8333 62,51.5C 57.0852,47.5188 55.2519,42.3522 56.5,36C 56.579,24.9336 59.579,14.7669 65.5,5.5 Z"/></g>
</svg>
