<?xml version="1.0" encoding="UTF-8"?>
<!DOCTYPE svg PUBLIC "-//W3C//DTD SVG 1.1//EN" "http://www.w3.org/Graphics/SVG/1.1/DTD/svg11.dtd">
<svg xmlns="http://www.w3.org/2000/svg" version="1.1" width="90px" height="90px" style="shape-rendering:geometricPrecision; text-rendering:geometricPrecision; image-rendering:optimizeQuality; fill-rule:evenodd; clip-rule:evenodd" xmlns:xlink="http://www.w3.org/1999/xlink">
<g><path style="opacity:0.984" fill="#000000" d="M 7.5,8.5 C 14.8409,8.33368 22.1742,8.50034 29.5,9C 31.2134,10.3782 32.5467,12.0448 33.5,14C 49.5,14.3333 65.5,14.6667 81.5,15C 82,15.5 82.5,16 83,16.5C 83.6667,35.1667 83.6667,53.8333 83,72.5C 82.5,73 82,73.5 81.5,74C 56.8333,74.6667 32.1667,74.6667 7.5,74C 7,73.5 6.5,73 6,72.5C 5.33333,51.8333 5.33333,31.1667 6,10.5C 6.71719,9.9558 7.21719,9.28913 7.5,8.5 Z M 40.5,30.5 C 43.8826,30.2572 47.0492,30.9239 50,32.5C 51.6805,37.4452 51.0138,42.1119 48,46.5C 47.3333,48.5 47.3333,50.5 48,52.5C 50.8164,53.6623 53.6497,54.8289 56.5,56C 57.3567,56.6891 58.0233,57.5224 58.5,58.5C 49.1667,59.8333 39.8333,59.8333 30.5,58.5C 30.9767,57.5224 31.6433,56.6891 32.5,56C 42.4508,54.2972 44.1175,49.6306 37.5,42C 37.6638,39.3012 37.8305,36.4679 38,33.5C 39.045,32.6266 39.8783,31.6266 40.5,30.5 Z"/></g>
</svg>
