<?xml version="1.0" encoding="UTF-8"?>
<!DOCTYPE svg PUBLIC "-//W3C//DTD SVG 1.1//EN" "http://www.w3.org/Graphics/SVG/1.1/DTD/svg11.dtd">
<svg xmlns="http://www.w3.org/2000/svg" version="1.1" width="90px" height="90px" style="shape-rendering:geometricPrecision; text-rendering:geometricPrecision; image-rendering:optimizeQuality; fill-rule:evenodd; clip-rule:evenodd" xmlns:xlink="http://www.w3.org/1999/xlink">
<g><path style="opacity:0.993" fill="#000000" d="M 62.5,41.5 C 54.4931,41.3336 46.4931,41.5003 38.5,42C 35.8333,43.6667 35.8333,45.3333 38.5,47C 46.4931,47.4997 54.4931,47.6664 62.5,47.5C 62.6665,57.8387 62.4998,68.172 62,78.5C 61.5,79 61,79.5 60.5,80C 43.8333,80.6667 27.1667,80.6667 10.5,80C 10,79.5 9.5,79 9,78.5C 8.33333,55.8333 8.33333,33.1667 9,10.5C 9.5,10 10,9.5 10.5,9C 27.1667,8.33333 43.8333,8.33333 60.5,9C 61,9.5 61.5,10 62,10.5C 62.4998,20.828 62.6665,31.1613 62.5,41.5 Z"/></g>
<g><path style="opacity:0.849" fill="#000000" d="M 89.5,41.5 C 89.5,43.5 89.5,45.5 89.5,47.5C 85.369,51.1296 81.369,54.963 77.5,59C 74.2983,61.0794 71.9649,60.2461 70.5,56.5C 72.2667,53.2302 74.6,50.3968 77.5,48C 72.5111,47.5007 67.5111,47.3341 62.5,47.5C 62.5,45.5 62.5,43.5 62.5,41.5C 67.5111,41.6659 72.5111,41.4993 77.5,41C 74.374,38.5497 72.0406,35.5497 70.5,32C 72.3145,29.7305 74.6479,29.0638 77.5,30C 81.369,34.037 85.369,37.8704 89.5,41.5 Z"/></g>
</svg>
