<?xml version="1.0" encoding="UTF-8"?>
<!DOCTYPE svg PUBLIC "-//W3C//DTD SVG 1.1//EN" "http://www.w3.org/Graphics/SVG/1.1/DTD/svg11.dtd">
<svg xmlns="http://www.w3.org/2000/svg" version="1.1" width="90px" height="90px" style="shape-rendering:geometricPrecision; text-rendering:geometricPrecision; image-rendering:optimizeQuality; fill-rule:evenodd; clip-rule:evenodd" xmlns:xlink="http://www.w3.org/1999/xlink">
<g><path style="opacity:0.95" fill="#000000" d="M -0.5,80.5 C -0.5,77.5 -0.5,74.5 -0.5,71.5C 3.46489,64.6625 9.46489,60.4958 17.5,59C 20.4629,56.7294 21.1295,53.8961 19.5,50.5C 16.7537,47.3356 14.2537,44.0023 12,40.5C 12.7164,34.9946 12.5497,29.4946 11.5,24C 10.4321,16.5194 13.4321,11.5194 20.5,9C 25.1667,8.33333 29.8333,8.33333 34.5,9C 36.4828,10.8889 38.8162,12.2223 41.5,13C 42.7636,14.8606 43.7636,16.8606 44.5,19C 42.9798,27.4348 41.8131,35.9348 41,44.5C 39.7316,46.7173 38.2316,48.7173 36.5,50.5C 35.359,52.4213 35.1923,54.4213 36,56.5C 39.0032,59.3376 42.5032,61.3376 46.5,62.5C 43.8756,64.6218 41.3756,66.9552 39,69.5C 37.0961,72.9231 36.2628,76.5898 36.5,80.5C 24.1667,80.5 11.8333,80.5 -0.5,80.5 Z"/></g>
<g><path style="opacity:0.957" fill="#000000" d="M 89.5,74.5 C 89.5,76.5 89.5,78.5 89.5,80.5C 73.5,80.5 57.5,80.5 41.5,80.5C 40.9369,75.1256 42.9369,70.9589 47.5,68C 52.8931,66.4844 56.8931,63.3177 59.5,58.5C 59.2907,57.914 58.9574,57.414 58.5,57C 55.086,56.7031 51.7527,56.0365 48.5,55C 46.8198,54.6532 45.8198,53.6532 45.5,52C 47.0798,42.9188 47.9131,33.7521 48,24.5C 48.5622,21.1283 50.0622,18.2949 52.5,16C 56.0633,15.1596 59.3966,13.8263 62.5,12C 70.4352,9.71995 76.2685,12.22 80,19.5C 81.8882,30.5257 83.7215,41.5257 85.5,52.5C 83.9969,54.4216 81.9969,55.5883 79.5,56C 76.854,56.4974 74.1873,56.6641 71.5,56.5C 71.4914,58.3084 71.9914,59.9751 73,61.5C 76.0808,64.2931 79.5808,66.4597 83.5,68C 85.7341,70.0627 87.7341,72.2294 89.5,74.5 Z"/></g>
</svg>
