<?xml version="1.0" encoding="UTF-8"?>
<!DOCTYPE svg PUBLIC "-//W3C//DTD SVG 1.1//EN" "http://www.w3.org/Graphics/SVG/1.1/DTD/svg11.dtd">
<svg xmlns="http://www.w3.org/2000/svg" version="1.1" width="90px" height="90px" style="shape-rendering:geometricPrecision; text-rendering:geometricPrecision; image-rendering:optimizeQuality; fill-rule:evenodd; clip-rule:evenodd" xmlns:xlink="http://www.w3.org/1999/xlink">
<g><path style="opacity:0.941" fill="#000000" d="M 35.5,8.5 C 57.8417,5.41058 72.675,14.4106 80,35.5C 83.5788,57.8564 74.7454,72.6897 53.5,80C 31.1436,83.5788 16.3103,74.7454 9,53.5C 5.61234,31.1004 14.4457,16.1004 35.5,8.5 Z M 41.5,20.5 C 43.5,20.5 45.5,20.5 47.5,20.5C 47.1924,22.924 47.5258,25.2573 48.5,27.5C 53.3352,28.6638 56.0018,31.6638 56.5,36.5C 53.4041,37.0934 51.0708,36.0934 49.5,33.5C 45.7377,31.9096 42.2377,32.243 39,34.5C 38.2025,36.2588 38.3691,37.9255 39.5,39.5C 44.1268,41.0609 48.7935,42.5609 53.5,44C 59.8564,51.9806 58.1897,57.814 48.5,61.5C 47.5258,63.7427 47.1924,66.076 47.5,68.5C 45.5,68.5 43.5,68.5 41.5,68.5C 42.4203,63.9385 40.7537,61.1052 36.5,60C 34.2589,58.2609 32.5922,56.0942 31.5,53.5C 34.8854,52.0173 37.5521,52.8506 39.5,56C 41.1667,56.1667 42.8333,56.3333 44.5,56.5C 50.2181,57.1249 52.2181,54.7916 50.5,49.5C 45.9452,47.6938 41.2786,46.1938 36.5,45C 31.5466,40.3574 31.2133,35.3574 35.5,30C 40.477,28.7982 42.477,25.6316 41.5,20.5 Z"/></g>
</svg>
